<svg xmlns="http://www.w3.org/2000/svg" xmlns:xlink="http://www.w3.org/1999/xlink" width="500" zoomAndPan="magnify" viewBox="0 0 375 374.999991" height="500" preserveAspectRatio="xMidYMid meet" version="1.0"><defs><clipPath id="435aa622f0"><path d="M 0 59 L 375 59 L 375 333.328125 L 0 333.328125 Z M 0 59 " clip-rule="nonzero"/></clipPath><clipPath id="78de30fb9a"><path d="M 0 301 L 375 301 L 375 333.328125 L 0 333.328125 Z M 0 301 " clip-rule="nonzero"/></clipPath></defs><g clip-path="url(#435aa622f0)"><path fill="#f4eade" d="M 187.511719 73.339844 C 113.332031 46.839844 25.230469 66.769531 4.523438 72.117188 C 1.859375 72.804688 0.0117188 75.21875 0.0117188 77.96875 L 0.0117188 325.660156 C 0.0117188 329.585938 3.65625 332.480469 7.464844 331.539062 C 32.347656 325.402344 114.957031 308.414062 185.628906 332.84375 C 186.851562 333.265625 188.171875 333.265625 189.394531 332.84375 C 260.066406 308.414062 342.675781 325.402344 367.558594 331.539062 C 371.371094 332.480469 375.011719 329.585938 375.011719 325.660156 L 375.011719 77.96875 C 375.011719 75.21875 373.164062 72.804688 370.5 72.117188 C 349.796875 66.769531 261.691406 46.839844 187.511719 73.339844 Z M 187.511719 73.339844 " fill-opacity="1" fill-rule="nonzero"/></g><path fill="#aa9f9f" d="M 254.832031 239.421875 L 234.628906 254.246094 C 232.453125 255.878906 229.425781 254.003906 229.910156 251.339844 L 234.328125 226.65625 Z M 254.832031 239.421875 " fill-opacity="1" fill-rule="nonzero"/><path fill="#c07055" d="M 48.171875 248.3125 L 48.6875 260.40625 C 48.828125 263.753906 46.230469 266.578125 42.886719 266.710938 L 30.792969 267.195312 C 27.457031 267.328125 24.640625 264.730469 24.507812 261.390625 L 24.023438 249.324219 C 23.890625 245.992188 26.480469 243.179688 29.808594 243.039062 L 41.871094 242.523438 C 45.210938 242.382812 48.03125 244.972656 48.171875 248.3125 Z M 48.171875 248.3125 " fill-opacity="1" fill-rule="nonzero"/><path fill="#c07055" d="M 48.171875 205.960938 L 48.6875 218.054688 C 48.828125 221.398438 46.230469 224.222656 42.886719 224.359375 L 30.792969 224.839844 C 27.457031 224.976562 24.640625 222.378906 24.507812 219.039062 L 24.023438 206.972656 C 23.890625 203.640625 26.480469 200.828125 29.808594 200.6875 L 41.871094 200.171875 C 45.210938 200.027344 48.03125 202.621094 48.171875 205.960938 Z M 48.171875 205.960938 " fill-opacity="1" fill-rule="nonzero"/><path fill="#c07055" d="M 48.171875 163.605469 L 48.6875 175.703125 C 48.828125 179.046875 46.230469 181.871094 42.886719 182.003906 L 30.792969 182.488281 C 27.457031 182.625 24.640625 180.023438 24.507812 176.6875 L 24.023438 164.621094 C 23.890625 161.289062 26.480469 158.472656 29.808594 158.332031 L 41.871094 157.820312 C 45.210938 157.675781 48.03125 160.269531 48.171875 163.605469 Z M 48.171875 163.605469 " fill-opacity="1" fill-rule="nonzero"/><g clip-path="url(#78de30fb9a)"><path fill="#f5d6c2" d="M 185.628906 332.84375 C 114.957031 308.414062 32.347656 325.40625 7.464844 331.542969 C 3.65625 332.480469 0.0117188 329.585938 0.0117188 325.660156 L 0.0117188 315.355469 C 0.0117188 315.355469 102.835938 285.101562 187.511719 315.355469 C 272.191406 285.101562 375.011719 315.355469 375.011719 315.355469 L 375.011719 325.660156 C 375.011719 329.585938 371.367188 332.480469 367.558594 331.542969 C 342.675781 325.40625 260.066406 308.414062 189.394531 332.84375 C 188.171875 333.265625 186.851562 333.265625 185.628906 332.84375 Z M 185.628906 332.84375 " fill-opacity="1" fill-rule="nonzero"/></g><path fill="#f4eade" d="M 149.46875 114.664062 C 149.46875 115.261719 149.410156 115.851562 149.292969 116.433594 C 149.175781 117.019531 149.003906 117.585938 148.777344 118.136719 C 148.550781 118.6875 148.269531 119.210938 147.9375 119.707031 C 147.609375 120.203125 147.230469 120.660156 146.808594 121.082031 C 146.390625 121.503906 145.929688 121.878906 145.4375 122.210938 C 144.941406 122.539062 144.417969 122.820312 143.867188 123.046875 C 143.316406 123.277344 142.75 123.449219 142.164062 123.566406 C 141.582031 123.679688 140.992188 123.738281 140.394531 123.738281 C 139.800781 123.738281 139.210938 123.679688 138.625 123.566406 C 138.039062 123.449219 137.472656 123.277344 136.921875 123.046875 C 136.371094 122.820312 135.851562 122.539062 135.355469 122.210938 C 134.859375 121.878906 134.402344 121.503906 133.980469 121.082031 C 133.558594 120.660156 133.183594 120.203125 132.851562 119.707031 C 132.519531 119.210938 132.242188 118.6875 132.011719 118.136719 C 131.785156 117.585938 131.613281 117.019531 131.496094 116.433594 C 131.378906 115.851562 131.324219 115.261719 131.324219 114.664062 C 131.324219 114.066406 131.378906 113.476562 131.496094 112.894531 C 131.613281 112.308594 131.785156 111.742188 132.011719 111.191406 C 132.242188 110.640625 132.519531 110.117188 132.851562 109.621094 C 133.183594 109.125 133.558594 108.667969 133.980469 108.246094 C 134.402344 107.824219 134.859375 107.449219 135.355469 107.117188 C 135.851562 106.785156 136.371094 106.507812 136.921875 106.277344 C 137.472656 106.050781 138.039062 105.878906 138.625 105.761719 C 139.210938 105.644531 139.800781 105.589844 140.394531 105.589844 C 140.992188 105.589844 141.582031 105.644531 142.164062 105.761719 C 142.75 105.878906 143.316406 106.050781 143.867188 106.277344 C 144.417969 106.507812 144.941406 106.785156 145.4375 107.117188 C 145.929688 107.449219 146.390625 107.824219 146.808594 108.246094 C 147.230469 108.667969 147.609375 109.125 147.9375 109.621094 C 148.269531 110.117188 148.550781 110.640625 148.777344 111.191406 C 149.003906 111.742188 149.175781 112.308594 149.292969 112.894531 C 149.410156 113.476562 149.46875 114.066406 149.46875 114.664062 Z M 149.46875 114.664062 " fill-opacity="1" fill-rule="nonzero"/><path fill="#f4eade" d="M 84.75 112.667969 C 84.75 113.261719 84.691406 113.851562 84.574219 114.4375 C 84.460938 115.023438 84.289062 115.589844 84.058594 116.140625 C 83.832031 116.691406 83.550781 117.214844 83.222656 117.710938 C 82.890625 118.203125 82.515625 118.664062 82.09375 119.085938 C 81.671875 119.507812 81.214844 119.882812 80.71875 120.214844 C 80.222656 120.542969 79.699219 120.824219 79.148438 121.050781 C 78.597656 121.28125 78.03125 121.453125 77.449219 121.570312 C 76.863281 121.683594 76.273438 121.742188 75.675781 121.742188 C 75.082031 121.742188 74.492188 121.683594 73.90625 121.570312 C 73.324219 121.453125 72.753906 121.28125 72.207031 121.050781 C 71.65625 120.824219 71.132812 120.542969 70.636719 120.214844 C 70.140625 119.882812 69.683594 119.507812 69.261719 119.085938 C 68.839844 118.664062 68.464844 118.203125 68.132812 117.710938 C 67.804688 117.214844 67.523438 116.691406 67.296875 116.140625 C 67.066406 115.589844 66.894531 115.023438 66.777344 114.4375 C 66.664062 113.851562 66.605469 113.261719 66.605469 112.667969 C 66.605469 112.070312 66.664062 111.480469 66.777344 110.898438 C 66.894531 110.3125 67.066406 109.746094 67.296875 109.195312 C 67.523438 108.644531 67.804688 108.121094 68.132812 107.625 C 68.464844 107.128906 68.839844 106.671875 69.261719 106.25 C 69.683594 105.828125 70.140625 105.453125 70.636719 105.121094 C 71.132812 104.789062 71.65625 104.511719 72.207031 104.28125 C 72.753906 104.054688 73.324219 103.882812 73.90625 103.765625 C 74.492188 103.648438 75.082031 103.589844 75.675781 103.589844 C 76.273438 103.589844 76.863281 103.648438 77.449219 103.765625 C 78.03125 103.882812 78.597656 104.054688 79.148438 104.28125 C 79.699219 104.511719 80.222656 104.789062 80.71875 105.121094 C 81.214844 105.453125 81.671875 105.828125 82.09375 106.25 C 82.515625 106.671875 82.890625 107.128906 83.222656 107.625 C 83.550781 108.121094 83.832031 108.644531 84.058594 109.195312 C 84.289062 109.746094 84.460938 110.3125 84.574219 110.898438 C 84.691406 111.480469 84.75 112.070312 84.75 112.667969 Z M 84.75 112.667969 " fill-opacity="1" fill-rule="nonzero"/><path fill="#f4eade" d="M 103.921875 85.984375 C 113.84375 87.253906 121.039062 95 119.953125 103.289062 C 118.863281 111.578125 109.972656 117.265625 100.050781 115.933594 Z M 103.921875 85.984375 " fill-opacity="1" fill-rule="nonzero"/><path fill="#f4eade" d="M 370.5 72.117188 C 349.972656 66.816406 263.175781 47.175781 189.394531 72.679688 C 188.171875 73.101562 186.851562 73.101562 185.628906 72.679688 C 111.847656 47.175781 25.054688 66.816406 4.523438 72.117188 C 1.859375 72.808594 0.0117188 75.21875 0.0117188 77.96875 L 0.0117188 315.355469 C 0.0117188 315.355469 102.835938 285.101562 187.511719 315.355469 C 272.191406 285.101562 375.011719 315.355469 375.011719 315.355469 L 375.011719 77.96875 C 375.011719 75.21875 373.164062 72.804688 370.5 72.117188 Z M 322.089844 131.664062 L 318.882812 136.808594 L 254.832031 239.421875 L 234.628906 254.246094 C 232.453125 255.878906 229.425781 254.003906 229.910156 251.339844 L 234.328125 226.65625 L 298.378906 123.980469 L 301.285156 119.316406 C 304.589844 114.019531 311.390625 111.546875 317.011719 114.261719 C 321.425781 116.394531 323.964844 120.746094 323.964844 125.253906 C 323.964844 127.429688 323.359375 129.667969 322.089844 131.664062 Z M 322.089844 131.664062 " fill-opacity="1" fill-rule="nonzero"/><path fill="#c07055" d="M 75.65625 100.566406 C 68.984375 100.566406 63.558594 105.996094 63.558594 112.667969 C 63.558594 119.335938 68.984375 124.769531 75.65625 124.769531 C 82.328125 124.769531 87.753906 119.335938 87.753906 112.667969 C 87.753906 105.996094 82.328125 100.566406 75.65625 100.566406 Z M 75.65625 118.71875 C 72.320312 118.71875 69.605469 116.003906 69.605469 112.667969 C 69.605469 109.328125 72.320312 106.617188 75.65625 106.617188 C 78.988281 106.617188 81.703125 109.328125 81.703125 112.667969 C 81.703125 116.003906 78.988281 118.71875 75.65625 118.71875 Z M 75.65625 118.71875 " fill-opacity="1" fill-rule="nonzero"/><path fill="#c07055" d="M 140.398438 102.582031 C 133.726562 102.582031 128.300781 108.011719 128.300781 114.683594 C 128.300781 121.351562 133.726562 126.78125 140.398438 126.78125 C 147.070312 126.78125 152.496094 121.351562 152.496094 114.683594 C 152.496094 108.011719 147.070312 102.582031 140.398438 102.582031 Z M 140.398438 120.730469 C 137.0625 120.730469 134.347656 118.019531 134.347656 114.683594 C 134.347656 111.34375 137.0625 108.632812 140.398438 108.632812 C 143.730469 108.632812 146.445312 111.34375 146.445312 114.683594 C 146.445312 118.019531 143.730469 120.730469 140.398438 120.730469 Z M 140.398438 120.730469 " fill-opacity="1" fill-rule="nonzero"/><path fill="#c07055" d="M 59.941406 88.523438 L 29.699219 94.574219 C 28.0625 94.898438 27 96.496094 27.328125 98.132812 C 27.613281 99.574219 28.878906 100.566406 30.289062 100.566406 C 30.484375 100.566406 30.683594 100.550781 30.886719 100.507812 L 43.726562 97.9375 L 48.246094 122.054688 C 48.519531 123.507812 49.789062 124.527344 51.214844 124.527344 C 51.398438 124.527344 51.589844 124.507812 51.777344 124.472656 C 53.417969 124.164062 54.5 122.589844 54.191406 120.945312 L 49.65625 96.753906 L 61.125 94.457031 C 62.761719 94.132812 63.824219 92.535156 63.5 90.898438 C 63.175781 89.257812 61.597656 88.171875 59.941406 88.523438 Z M 59.941406 88.523438 " fill-opacity="1" fill-rule="nonzero"/><path fill="#c07055" d="M 104.285156 82.953125 C 102.65625 82.757812 101.117188 83.914062 100.898438 85.566406 L 97.023438 115.570312 C 96.921875 116.367188 97.136719 117.167969 97.628906 117.808594 C 98.117188 118.441406 98.84375 118.855469 99.636719 118.960938 C 100.703125 119.097656 101.757812 119.160156 102.800781 119.160156 C 113.0625 119.160156 121.792969 112.679688 122.957031 103.667969 C 123.589844 98.753906 121.925781 93.878906 118.273438 89.9375 C 114.761719 86.144531 109.792969 83.664062 104.285156 82.953125 Z M 116.953125 102.886719 C 116.207031 108.683594 110.421875 112.867188 103.441406 113.105469 L 106.480469 89.582031 C 109.371094 90.4375 111.917969 91.976562 113.835938 94.046875 C 116.25 96.648438 117.355469 99.792969 116.953125 102.886719 Z M 116.953125 102.886719 " fill-opacity="1" fill-rule="nonzero"/><path fill="#7c4d4d" d="M 151.261719 173.171875 C 151.097656 173.171875 150.929688 173.160156 150.761719 173.128906 C 115.332031 167.234375 67.4375 173.085938 66.957031 173.148438 C 65.28125 173.390625 63.789062 172.179688 63.582031 170.515625 C 63.375 168.863281 64.550781 167.351562 66.207031 167.144531 C 68.199219 166.890625 115.449219 161.109375 151.753906 167.160156 C 153.402344 167.433594 154.515625 168.992188 154.242188 170.640625 C 153.996094 172.125 152.714844 173.171875 151.261719 173.171875 Z M 151.261719 173.171875 " fill-opacity="1" fill-rule="nonzero"/><path fill="#7c4d4d" d="M 151.261719 215.523438 C 151.097656 215.523438 150.929688 215.511719 150.761719 215.480469 C 115.332031 209.578125 67.4375 215.441406 66.957031 215.5 C 65.28125 215.710938 63.789062 214.53125 63.582031 212.871094 C 63.375 211.214844 64.550781 209.703125 66.207031 209.496094 C 68.199219 209.242188 115.449219 203.46875 151.753906 209.511719 C 153.402344 209.785156 154.515625 211.34375 154.242188 212.992188 C 153.996094 214.476562 152.714844 215.523438 151.261719 215.523438 Z M 151.261719 215.523438 " fill-opacity="1" fill-rule="nonzero"/><path fill="#7c4d4d" d="M 151.261719 257.875 C 151.097656 257.875 150.929688 257.863281 150.761719 257.835938 C 115.332031 251.9375 67.4375 257.789062 66.957031 257.851562 C 65.28125 258.078125 63.789062 256.890625 63.582031 255.222656 C 63.375 253.566406 64.550781 252.054688 66.207031 251.847656 C 68.199219 251.59375 115.449219 245.820312 151.753906 251.867188 C 153.402344 252.136719 154.515625 253.699219 154.242188 255.347656 C 153.996094 256.828125 152.714844 257.875 151.261719 257.875 Z M 151.261719 257.875 " fill-opacity="1" fill-rule="nonzero"/><path fill="#aa9f9f" d="M 303.980469 176.714844 C 303.433594 176.714844 302.878906 176.570312 302.382812 176.253906 C 300.964844 175.375 300.53125 173.507812 301.417969 172.089844 L 322.242188 138.71875 L 302.441406 126.203125 C 301.03125 125.3125 300.605469 123.445312 301.5 122.03125 C 302.394531 120.621094 304.261719 120.207031 305.671875 121.085938 L 328.015625 135.207031 C 329.421875 136.101562 329.847656 137.957031 328.96875 139.367188 L 306.550781 175.292969 C 305.972656 176.214844 304.988281 176.714844 303.980469 176.714844 Z M 303.980469 176.714844 " fill-opacity="1" fill-rule="nonzero"/><path fill="#aa9f9f" d="M 323.964844 125.253906 C 323.964844 127.429688 323.359375 129.667969 322.089844 131.664062 L 318.882812 136.808594 L 298.378906 123.980469 L 301.585938 118.839844 C 305.09375 113.152344 312.59375 111.457031 318.277344 114.964844 C 321.90625 117.265625 323.964844 121.199219 323.964844 125.253906 Z M 323.964844 125.253906 " fill-opacity="1" fill-rule="nonzero"/><path fill="#c07055" d="M 298.378906 123.980469 L 318.882812 136.808594 L 254.832031 239.421875 L 234.328125 226.65625 Z M 298.378906 123.980469 " fill-opacity="1" fill-rule="nonzero"/><path fill="#c07055" d="M 47.914062 242.265625 L 48.945312 266.46875 L 24.75 267.4375 L 23.78125 243.292969 Z M 47.914062 242.265625 " fill-opacity="1" fill-rule="nonzero"/><path fill="#c07055" d="M 47.914062 199.914062 L 48.945312 224.113281 L 24.75 225.082031 L 23.78125 200.941406 Z M 47.914062 199.914062 " fill-opacity="1" fill-rule="nonzero"/><path fill="#c07055" d="M 47.914062 157.5625 L 48.945312 181.761719 L 24.75 182.730469 L 23.78125 158.589844 Z M 47.914062 157.5625 " fill-opacity="1" fill-rule="nonzero"/></svg>